<svg width="960" height="640" viewBox="0 0 960 640" fill="none" xmlns="http://www.w3.org/2000/svg">
  <rect width="960" height="640" rx="32" fill="#F3F9F6"/>
  <rect x="58" y="56" width="844" height="528" rx="24" fill="white" stroke="#D7E5E0" stroke-width="2"/>
  <rect x="98" y="98" width="246" height="448" rx="18" fill="#0D6B5B"/>
  <rect x="124" y="132" width="168" height="18" rx="9" fill="#CCF7EC"/>
  <rect x="124" y="162" width="112" height="12" rx="6" fill="#B4EBDD"/>
  <circle cx="170" cy="240" r="42" fill="#CCF7EC"/>
  <rect x="124" y="330" width="192" height="12" rx="6" fill="#B4EBDD"/>
  <rect x="124" y="352" width="146" height="12" rx="6" fill="#B4EBDD"/>
  <rect x="380" y="98" width="482" height="216" rx="16" fill="#FCFEFD" stroke="#D7E5E0"/>
  <rect x="408" y="130" width="186" height="14" rx="7" fill="#0D6B5B" fill-opacity="0.35"/>
  <rect x="408" y="156" width="260" height="10" rx="5" fill="#8EA7A0" fill-opacity="0.45"/>
  <rect x="408" y="218" width="172" height="14" rx="7" fill="#E78B41" fill-opacity="0.35"/>
  <rect x="408" y="244" width="238" height="10" rx="5" fill="#8EA7A0" fill-opacity="0.45"/>
  <rect x="380" y="334" width="482" height="212" rx="16" fill="#FCFEFD" stroke="#D7E5E0"/>
  <line x1="434" y1="380" x2="434" y2="500" stroke="#D4E3DE" stroke-width="4"/>
  <circle cx="434" cy="400" r="12" fill="#0D6B5B"/>
  <circle cx="434" cy="448" r="12" fill="#0D6B5B" fill-opacity="0.65"/>
  <circle cx="434" cy="496" r="12" fill="#E78B41"/>
  <rect x="464" y="392" width="186" height="10" rx="5" fill="#0D6B5B" fill-opacity="0.3"/>
  <rect x="464" y="438" width="230" height="10" rx="5" fill="#0D6B5B" fill-opacity="0.3"/>
  <rect x="464" y="486" width="210" height="10" rx="5" fill="#C36924" fill-opacity="0.3"/>
</svg>
