<svg width="1200" height="840" viewBox="0 0 1200 840" fill="none" xmlns="http://www.w3.org/2000/svg">
  <rect width="1200" height="840" rx="40" fill="#F5F8F6"/>
  <rect x="68" y="64" width="1064" height="712" rx="28" fill="white" stroke="#D7E5E0" stroke-width="2"/>
  <rect x="112" y="118" width="420" height="208" rx="18" fill="#0D6B5B"/>
  <rect x="132" y="148" width="238" height="24" rx="8" fill="#D7FFF4"/>
  <rect x="132" y="184" width="160" height="14" rx="7" fill="#AEEBDD"/>
  <rect x="132" y="208" width="214" height="14" rx="7" fill="#AEEBDD"/>
  <rect x="560" y="118" width="528" height="208" rx="18" fill="#F8FBFA" stroke="#D9E7E3"/>
  <circle cx="615" cy="175" r="22" fill="#0D6B5B" fill-opacity="0.12"/>
  <rect x="652" y="158" width="192" height="14" rx="7" fill="#0D6B5B" fill-opacity="0.3"/>
  <rect x="652" y="184" width="290" height="12" rx="6" fill="#8EA7A0" fill-opacity="0.5"/>
  <circle cx="615" cy="256" r="22" fill="#E78B41" fill-opacity="0.16"/>
  <rect x="652" y="240" width="220" height="14" rx="7" fill="#C36924" fill-opacity="0.35"/>
  <rect x="652" y="266" width="270" height="12" rx="6" fill="#8EA7A0" fill-opacity="0.5"/>
  <rect x="112" y="360" width="976" height="356" rx="18" fill="#FCFEFD" stroke="#D9E7E3"/>
  <line x1="180" y1="420" x2="180" y2="666" stroke="#D4E3DE" stroke-width="4"/>
  <circle cx="180" cy="450" r="16" fill="#0D6B5B"/>
  <circle cx="180" cy="550" r="16" fill="#0D6B5B" fill-opacity="0.65"/>
  <circle cx="180" cy="640" r="16" fill="#E78B41"/>
  <rect x="220" y="432" width="240" height="14" rx="7" fill="#0D6B5B" fill-opacity="0.35"/>
  <rect x="220" y="458" width="320" height="12" rx="6" fill="#8EA7A0" fill-opacity="0.45"/>
  <rect x="220" y="532" width="210" height="14" rx="7" fill="#0D6B5B" fill-opacity="0.35"/>
  <rect x="220" y="558" width="280" height="12" rx="6" fill="#8EA7A0" fill-opacity="0.45"/>
  <rect x="220" y="622" width="260" height="14" rx="7" fill="#C36924" fill-opacity="0.35"/>
  <rect x="220" y="648" width="300" height="12" rx="6" fill="#8EA7A0" fill-opacity="0.45"/>
</svg>
